<svg xmlns="http://www.w3.org/2000/svg" width="15" height="14.66" viewBox="0 0 15 14.66">
  <path id="Path_1" data-name="Path 1" d="M143.812,107.408a7.5,7.5,0,0,0-2.371,14.62c.373.069.511-.166.511-.364v-1.276c-2.086.46-2.528-1-2.528-1a2.008,2.008,0,0,0-.833-1.1c-.677-.46.055-.46.055-.46a1.579,1.579,0,0,1,1.147.774,1.6,1.6,0,0,0,2.183.626,1.593,1.593,0,0,1,.46-1c-1.667-.189-3.417-.833-3.417-3.707a2.9,2.9,0,0,1,.769-2.012,2.731,2.731,0,0,1,.074-1.985s.631-.2,2.063.769a7.1,7.1,0,0,1,3.758,0c1.432-.972,2.058-.769,2.058-.769a2.717,2.717,0,0,1,.078,1.985,2.9,2.9,0,0,1,.769,2.012c0,2.883-1.754,3.513-3.426,3.684a1.773,1.773,0,0,1,.511,1.381c0,1,0,1.814,0,2.058s.134.433.516.364a7.506,7.506,0,0,0-2.376-14.62Z" transform="translate(-136.302 -107.38)" fill="#2b3139" fill-rule="evenodd"/>
</svg>
