<svg xmlns="http://www.w3.org/2000/svg" width="14" height="14" viewBox="0 0 14 14">
  <path id="icon-external-link" d="M15.444,5.652,7.433,13.663a.778.778,0,1,1-1.089-1.1l8-8H11.556a.778.778,0,0,1,0-1.556h4.667A.778.778,0,0,1,17,3.778V8.444a.778.778,0,1,1-1.556,0Zm-1.556,5.9a.778.778,0,0,1,1.556,0v3.889A1.556,1.556,0,0,1,13.889,17H4.556A1.556,1.556,0,0,1,3,15.444V6.111A1.56,1.56,0,0,1,4.556,4.556H8.444a.778.778,0,1,1,0,1.556H4.556v9.333h9.333Z" transform="translate(-3 -3)" fill="#2b3139"/>
</svg>
