<svg xmlns="http://www.w3.org/2000/svg" width="15" height="15" viewBox="0 0 15 15">
  <path id="icons8-linkedin" d="M16.333,3H4.667A1.666,1.666,0,0,0,3,4.667V16.333A1.666,1.666,0,0,0,4.667,18H16.333A1.666,1.666,0,0,0,18,16.333V4.667A1.666,1.666,0,0,0,16.333,3ZM6.948,14.667h0A1.052,1.052,0,0,1,5.9,13.615V9.884A1.053,1.053,0,0,1,6.948,8.833h0A1.052,1.052,0,0,1,8,9.885v3.731A1.051,1.051,0,0,1,6.948,14.667Zm-.037-6.9a1,1,0,0,1-1.072-1,1.019,1.019,0,0,1,1.142-1,1,1,0,0,1,1.072,1A1.019,1.019,0,0,1,6.912,7.764Zm7.571,6.9h0a1.018,1.018,0,0,1-1.017-1.017V11.478c0-.882-.542-.978-.746-.978s-.882.029-.882.978v2.171a1.018,1.018,0,0,1-1.018,1.018h-.067a1.018,1.018,0,0,1-1.018-1.017V9.885a1.052,1.052,0,0,1,1.052-1.052h0a1.052,1.052,0,0,1,1.052,1.052s.235-1.052,1.832-1.052c1.016,0,1.83.814,1.83,2.645v2.171A1.018,1.018,0,0,1,14.482,14.667Z" transform="translate(-3 -3)" fill="#2b3139"/>
</svg>
