<svg xmlns="http://www.w3.org/2000/svg" width="15" height="12.188" viewBox="0 0 15 12.188">
  <path id="icons8-twitter" d="M15,3.438a5.678,5.678,0,0,1-1.75.5,3.326,3.326,0,0,0,1.375-1.689A5.7,5.7,0,0,1,12.688,3a3.272,3.272,0,0,0-2.312-1A3.067,3.067,0,0,0,7.312,5.062a2.312,2.312,0,0,0,.063.688A8.55,8.55,0,0,1,1.062,2.562,2.69,2.69,0,0,0,.625,4.124,3.134,3.134,0,0,0,2,6.688,4.445,4.445,0,0,1,.625,6.312v.063a3.034,3.034,0,0,0,2.437,3,3.209,3.209,0,0,1-.811.125,1.714,1.714,0,0,1-.564-.063,2.967,2.967,0,0,0,2.876,2.126A6.249,6.249,0,0,1,.75,12.874,3.11,3.11,0,0,1,0,12.813a8.757,8.757,0,0,0,4.688,1.375,8.67,8.67,0,0,0,8.75-8.75V5.062A6.417,6.417,0,0,0,15,3.438" transform="translate(0 -2)" fill="#2b3139"/>
</svg>
